<svg width="238" height="49" viewBox="0 0 238 49" fill="none" xmlns="http://www.w3.org/2000/svg">
<path fill-rule="evenodd" clip-rule="evenodd" d="M9.84991 29.2952L7.52422 33.6656L7.52382 48.3474H-9.02249e-05L0.00120589 0.54623H7.52512L7.52456 21.3739L17.3746 0.54623H24.8985L14.4329 21.8519L24.8972 48.3474H17.1681L9.84991 29.2952ZM35.5194 37.3531C35.5193 39.0831 35.8727 40.3008 36.5795 41.0065C37.2862 41.7121 38.2324 42.0649 39.418 42.0649C40.6036 42.0649 41.5498 41.7121 42.2566 41.0065C42.9634 40.3008 43.3168 39.0831 43.3169 37.3531L43.3176 11.5405C43.3176 9.81051 42.9643 8.59273 42.2575 7.88709C41.5507 7.18145 40.6045 6.82864 39.419 6.82864C38.2334 6.82864 37.2872 7.18145 36.5804 7.88709C35.8735 8.59273 35.5201 9.81051 35.5201 11.5405L35.5194 37.3531ZM27.9956 12.0186C27.9957 8.14894 28.9761 5.17847 30.937 3.10708C32.8978 1.03568 35.725 0 39.4186 0C43.1122 0 45.9393 1.03568 47.9 3.10708C49.8607 5.17847 50.841 8.14894 50.8409 12.0186L50.8403 36.8752C50.8401 40.7448 49.8597 43.7153 47.8988 45.7867C45.938 47.8581 43.1108 48.8938 39.4173 48.8938C35.7237 48.8938 32.8966 47.8581 30.9358 45.7867C28.9751 43.7153 27.9948 40.7448 27.9949 36.8752L27.9956 12.0186ZM63.1725 13.7258L63.1716 48.3476H56.4L56.4013 0.546369H65.8404L73.5688 29.1588L73.5695 0.546369H80.2727L80.2714 48.3476H72.5423L63.1725 13.7258ZM85.4904 12.0186C85.4906 8.14897 86.414 5.17849 88.2609 3.1071C90.1077 1.0357 92.8779 2.11e-05 96.5714 2.11e-05C100.265 2.11e-05 103.035 1.0357 104.882 3.1071C106.729 5.17849 107.652 8.14897 107.652 12.0186L107.652 13.5209H100.538L100.538 11.5406C100.538 9.81064 100.208 8.59286 99.5466 7.88722C98.8854 7.18158 97.9621 6.82876 96.7765 6.82876C95.5909 6.82876 94.6675 7.18158 94.0063 7.88722C93.345 8.59286 93.0144 9.81064 93.0144 11.5406C93.0143 13.1795 93.3791 14.6249 94.1086 15.8768C94.8382 17.1288 95.7502 18.3124 96.8445 19.4278C97.9389 20.5432 99.113 21.6585 100.367 22.7739C101.621 23.8892 102.795 25.107 103.889 26.4272C104.984 27.7475 105.896 29.2498 106.625 30.9342C107.355 32.6187 107.72 34.599 107.72 36.8752C107.719 40.7449 106.773 43.7153 104.881 45.7867C102.988 47.8581 100.195 48.8938 96.5017 48.8938C92.8081 48.8938 90.0152 47.8581 88.1229 45.7867C86.2306 43.7153 85.2845 40.7449 85.2846 36.8752L85.2847 33.9389H92.3982L92.3981 37.3532C92.398 39.0832 92.7514 40.2896 93.4582 40.9725C94.1649 41.6553 95.1111 41.9968 96.2967 41.9968C97.4823 41.9968 98.4285 41.6553 99.1353 40.9725C99.8421 40.2896 100.196 39.0832 100.196 37.3532C100.196 35.7143 99.8309 34.2689 99.1013 33.017C98.3718 31.765 97.4598 30.5814 96.3654 29.466C95.2711 28.3507 94.0969 27.2353 92.843 26.12C91.589 25.0046 90.4149 23.7868 89.3205 22.4666C88.2262 21.1464 87.3142 19.644 86.5847 17.9596C85.8551 16.2752 85.4904 14.2949 85.4904 12.0186ZM110.613 0.546207H133.868L133.868 7.37495H126.002L126.001 48.3474H118.477L118.478 7.37495H110.613L110.613 0.546207ZM153.654 48.3474C153.562 48.0287 153.471 47.7328 153.38 47.4596C153.289 47.1865 153.209 46.8451 153.141 46.4353C153.072 46.0256 153.027 45.5021 153.004 44.8647C152.981 44.2274 152.97 43.4307 152.97 42.4747L152.97 34.963C152.97 32.7323 152.582 31.1617 151.807 30.2512C151.032 29.3407 149.778 28.8855 148.045 28.8855H145.446L145.446 48.3474H137.922L137.923 0.546186H149.277C153.199 0.546186 156.037 1.45668 157.793 3.27768C159.549 5.09869 160.426 7.85292 160.426 11.5405L160.426 15.2963C160.426 20.213 158.784 23.4452 155.501 24.9931C157.416 25.767 158.727 27.0303 159.434 28.783C160.141 30.5358 160.494 32.664 160.494 35.1679L160.494 42.5429C160.494 43.7266 160.539 44.7623 160.63 45.65C160.722 46.5378 160.95 47.4369 161.314 48.3474H153.654ZM145.447 7.37507L145.447 22.0569H148.388C149.802 22.0569 150.908 21.6927 151.706 20.9643C152.504 20.2359 152.903 18.9156 152.903 17.0036L152.903 12.2918C152.903 10.5618 152.595 9.30988 151.979 8.53595C151.364 7.76202 150.395 7.37507 149.073 7.37507H145.447ZM173.374 0.546349L173.373 37.4216C173.373 39.1515 173.726 40.3579 174.433 41.0408C175.139 41.7237 176.086 42.0651 177.271 42.0651C178.457 42.0651 179.403 41.7237 180.11 41.0408C180.817 40.3579 181.17 39.1515 181.17 37.4216L181.171 0.546349H188.285L188.284 36.9435C188.284 40.8132 187.337 43.7836 185.445 45.855C183.552 47.9264 180.759 48.9621 177.066 48.9621C173.372 48.9621 170.579 47.9264 168.687 45.855C166.795 43.7836 165.849 40.8132 165.849 36.9435L165.85 0.546349H173.374ZM214.745 0.546364H238.001L238.001 7.3751H230.135L230.134 48.3476H222.61L222.611 7.3751H214.745L214.745 0.546364Z" fill="#1A1A1A"/>
</svg>
